      <svg
        className="mx-auto w-28"
        xmlns="http://www.w3.org/2000/svg"
        xml:space="preserve"
        id="logo-citroen"
        x="0"
        y="0"
        style="enable-background: new 0 0 110.8 108.1"
        version="1.1"
        viewBox="0 0 110.8 108.1"
      >
        <style>
          .st0 {
            fill: #3b3938;
          }
        </style>
        <path
          id="Tracé_1"
          d="M55.4 81.8c9 0 17.3-4.2 23.4-11.7s9.5-17.9 9.5-29.2-3.3-21.6-9.5-29.2S64.4 0 55.4 0 38.1 4.2 32 11.7s-9.5 17.9-9.5 29.2 3.4 21.6 9.5 29.2 14.5 11.7 23.4 11.7m0-78.1c16.3 0 28.7 15.4 29.1 35.9L55.2 17.9l-29 21.4c.7-20.4 13-35.6 29.2-35.6m-28.6 45 28.4-21L83.9 49c-.3 2.1-.8 4.2-1.4 6.2L55.1 34.9 28.2 54.7c-.6-2-1-4-1.4-6m28.3-4 24.3 18C74.2 72.1 65.5 78 55.4 78c-10.3 0-19-6.1-24.2-15.8l23.9-17.5z"
          class="st0"
        />
        <path
          id="Tracé_2"
          d="M24 98.8h6.2v8.9h2.4v-8.9h6.2v-2.1H24v2.1z"
          class="st0"
        />
        <path id="Rectangle_1" d="M18.8 96.8h2.4v11h-2.4z" class="st0" />
        <path
          id="Tracé_3"
          d="M105.2 96.8h-9v11h2.5v-8.9h5.9c2.3 0 3.8.9 3.8 3.4v5.5h2.5V102c-.1-2.9-1.8-5.2-5.7-5.2"
          class="st0"
        />
        <path
          id="Tracé_4"
          d="M87.5 95.4h3.6c.4 0 .8-.4.8-.8s-.4-.8-.8-.8h-3.6c-.4 0-.8.4-.8.8 0 .5.3.8.8.8"
          class="st0"
        />
        <path
          id="Tracé_5"
          d="M52.3 103.4c3.4-.1 4.5-1 4.5-3.3 0-2.1-1.5-3.3-4-3.3h-11v11h2.5v-8.9h8.6c1 0 1.5.4 1.5 1.3 0 .8-.2 1.5-1.8 1.5h-6.2v.6l7.6 5.5h3.6l-6.3-4.3 1-.1z"
          class="st0"
        />
        <path
          id="Tracé_6"
          d="M70.2 96.6h-4.4c-1.6 0-3.2.6-4.4 1.7-1.1 1.1-1.6 2.5-1.6 4 0 3.3 2.4 5.6 6 5.7h4.4c1.6 0 3.2-.6 4.4-1.7 1.1-1.1 1.6-2.5 1.6-4 .1-3.3-2.4-5.6-6-5.7m3.5 5.7c.1 1.9-1.4 3.5-3.3 3.6h-4.2c-2 0-3.6-1.6-3.6-3.6s1.6-3.6 3.6-3.6H70.1 70c2.3.1 3.7 1.4 3.7 3.6z"
          class="st0"
        />
        <path
          id="Tracé_7"
          d="M79.4 107.8h13.4v-2.1H81.9v-2.5h9.6v-2h-9.6v-2.4h10.9v-2.1H79.4v11.1z"
          class="st0"
        />
        <path
          id="Tracé_8"
          d="M81.2 95.4h3.6c.4 0 .8-.4.8-.8s-.4-.8-.8-.8h-3.6c-.4 0-.8.4-.8.8 0 .5.4.8.8.8"
          class="st0"
        />
        <path
          id="Tracé_9"
          d="M5.9 96.8c-1.6 0-3.2.6-4.3 1.6-1 1-1.6 2.4-1.6 3.8 0 3.2 2.4 5.3 5.9 5.4h8.8v-2.1H6.1c-2.2-.1-3.6-1.4-3.6-3.3 0-1.8 1.4-3.4 3.3-3.4h8.8v-2.1h-2.2c-2.6.1-6.4.1-6.5.1"
          class="st0"
        />
      </svg>