<?xml version="1.0" encoding="UTF-8"?>
<svg id="Calque_2" data-name="Calque 2" xmlns="http://www.w3.org/2000/svg" xmlns:xlink="http://www.w3.org/1999/xlink" viewBox="0 0 1275.59 1275.59">
  <defs>
    <style>
      .cls-1 {
        fill: url(#Dégradé_sans_nom_2);
      }

      .cls-2 {
        fill: url(#Dégradé_sans_nom_12);
      }

      .cls-3 {
        fill: url(#Dégradé_sans_nom_11-2);
      }

      .cls-4 {
        fill: url(#Dégradé_sans_nom_14);
      }

      .cls-5 {
        fill: url(#Dégradé_sans_nom_5);
      }

      .cls-6 {
        fill: none;
      }

      .cls-7 {
        fill: url(#Dégradé_sans_nom_8);
      }

      .cls-8 {
        fill: url(#Dégradé_sans_nom_9);
      }

      .cls-9 {
        fill: url(#Dégradé_sans_nom_11);
      }

      .cls-10 {
        fill: url(#Dégradé_sans_nom_6);
      }

      .cls-11 {
        fill: url(#Dégradé_sans_nom_11-3);
      }

      .cls-12 {
        fill: #1d1d1b;
      }
    </style>
    <linearGradient id="Dégradé_sans_nom_8" data-name="Dégradé sans nom 8" x1="722.1" y1="490.26" x2="722.1" y2="749.15" gradientUnits="userSpaceOnUse">
      <stop offset=".04" stop-color="#838382"/>
      <stop offset=".22" stop-color="#b6b6b6"/>
      <stop offset=".41" stop-color="#eaeaea"/>
      <stop offset=".51" stop-color="#fff"/>
      <stop offset=".59" stop-color="#fafaf9"/>
      <stop offset=".68" stop-color="#ebebeb"/>
      <stop offset=".79" stop-color="#d3d3d3"/>
      <stop offset=".9" stop-color="#b2b2b2"/>
      <stop offset=".96" stop-color="#9d9d9c"/>
    </linearGradient>
    <linearGradient id="Dégradé_sans_nom_11" data-name="Dégradé sans nom 11" x1="40.38" y1="668.87" x2="46.64" y2="740.42" gradientTransform="translate(704.75 -47.51)" gradientUnits="userSpaceOnUse">
      <stop offset="0" stop-color="#a8a8a7"/>
      <stop offset=".21" stop-color="#1d1d1b"/>
      <stop offset=".81" stop-color="#1d1d1b"/>
    </linearGradient>
    <linearGradient id="Dégradé_sans_nom_6" data-name="Dégradé sans nom 6" x1="721.72" y1="342.76" x2="721.72" y2="600.83" gradientUnits="userSpaceOnUse">
      <stop offset=".04" stop-color="#e2e1e1"/>
      <stop offset=".12" stop-color="#dcdcdc"/>
      <stop offset=".21" stop-color="#cecece"/>
      <stop offset=".25" stop-color="#c6c6c6"/>
      <stop offset=".4" stop-color="#eaeaea"/>
      <stop offset=".51" stop-color="#fff"/>
      <stop offset=".55" stop-color="#f9f9f9"/>
      <stop offset=".61" stop-color="#e8e8e8"/>
      <stop offset=".68" stop-color="#cececd"/>
      <stop offset=".76" stop-color="#a8a8a7"/>
      <stop offset=".83" stop-color="#787877"/>
      <stop offset=".92" stop-color="#3e3e3c"/>
      <stop offset=".96" stop-color="#1d1d1b"/>
    </linearGradient>
    <linearGradient id="Dégradé_sans_nom_14" data-name="Dégradé sans nom 14" x1="755.44" y1="600.68" x2="755.44" y2="359.84" gradientUnits="userSpaceOnUse">
      <stop offset=".04" stop-color="#1d1d1b"/>
      <stop offset=".05" stop-color="#2e2e2c"/>
      <stop offset=".07" stop-color="#595958"/>
      <stop offset=".1" stop-color="#818180"/>
      <stop offset=".13" stop-color="#a3a3a2"/>
      <stop offset=".17" stop-color="#c0c0bf"/>
      <stop offset=".2" stop-color="#d7d7d6"/>
      <stop offset=".24" stop-color="#e9e9e8"/>
      <stop offset=".29" stop-color="#f5f5f5"/>
      <stop offset=".36" stop-color="#fcfcfc"/>
      <stop offset=".51" stop-color="#fff"/>
      <stop offset=".66" stop-color="#fcfcfc"/>
      <stop offset=".74" stop-color="#f4f4f4"/>
      <stop offset=".8" stop-color="#e7e7e6"/>
      <stop offset=".86" stop-color="#d3d3d3"/>
      <stop offset=".91" stop-color="#bbbbba"/>
      <stop offset=".96" stop-color="#9d9d9c"/>
    </linearGradient>
    <linearGradient id="Dégradé_sans_nom_12" data-name="Dégradé sans nom 12" x1="688.39" y1="731.06" x2="688.39" y2="490.29" gradientUnits="userSpaceOnUse">
      <stop offset=".04" stop-color="#706f6f"/>
      <stop offset=".06" stop-color="#828181"/>
      <stop offset=".09" stop-color="#a3a2a2"/>
      <stop offset=".12" stop-color="#c0bfbf"/>
      <stop offset=".17" stop-color="#d7d6d6"/>
      <stop offset=".21" stop-color="#e9e8e8"/>
      <stop offset=".27" stop-color="#f5f5f5"/>
      <stop offset=".34" stop-color="#fcfcfc"/>
      <stop offset=".51" stop-color="#fff"/>
      <stop offset=".58" stop-color="#fbfbfb"/>
      <stop offset=".65" stop-color="#f1f1f1"/>
      <stop offset=".7" stop-color="#e1e1e0"/>
      <stop offset=".76" stop-color="#c9c9c9"/>
      <stop offset=".81" stop-color="#aaa"/>
      <stop offset=".86" stop-color="#858584"/>
      <stop offset=".91" stop-color="#595957"/>
      <stop offset=".95" stop-color="#262625"/>
      <stop offset=".96" stop-color="#1d1d1b"/>
    </linearGradient>
    <linearGradient id="Dégradé_sans_nom_9" data-name="Dégradé sans nom 9" x1="521.33" y1="599.17" x2="521.33" y2="352.93" gradientUnits="userSpaceOnUse">
      <stop offset=".04" stop-color="#1d1d1b"/>
      <stop offset=".07" stop-color="#464645"/>
      <stop offset=".11" stop-color="#717170"/>
      <stop offset=".14" stop-color="#979796"/>
      <stop offset=".18" stop-color="#b7b7b7"/>
      <stop offset=".23" stop-color="#d1d1d1"/>
      <stop offset=".28" stop-color="#e5e5e5"/>
      <stop offset=".33" stop-color="#f4f4f4"/>
      <stop offset=".4" stop-color="#fcfcfc"/>
      <stop offset=".51" stop-color="#fff"/>
      <stop offset=".62" stop-color="#fcfcfc"/>
      <stop offset=".68" stop-color="#f4f4f4"/>
      <stop offset=".73" stop-color="#e6e6e6"/>
      <stop offset=".77" stop-color="#d3d3d3"/>
      <stop offset=".81" stop-color="#b9b9b9"/>
      <stop offset=".85" stop-color="#9a9a9a"/>
      <stop offset=".88" stop-color="#757575"/>
      <stop offset=".92" stop-color="#4a4a4a"/>
      <stop offset=".94" stop-color="#1b1b1b"/>
      <stop offset=".96" stop-color="#000"/>
    </linearGradient>
    <linearGradient id="Dégradé_sans_nom_11-2" data-name="Dégradé sans nom 11" x1="1416.59" y1="481.36" x2="1422.87" y2="553.23" gradientTransform="translate(2113.86) rotate(-180) scale(1 -1)" xlink:href="#Dégradé_sans_nom_11"/>
    <linearGradient id="Dégradé_sans_nom_5" data-name="Dégradé sans nom 5" x1="553.86" y1="342.81" x2="553.86" y2="609.4" gradientUnits="userSpaceOnUse">
      <stop offset=".04" stop-color="#706f6f"/>
      <stop offset=".12" stop-color="#828181"/>
      <stop offset=".28" stop-color="#b1b1b1"/>
      <stop offset=".5" stop-color="#fefefe"/>
      <stop offset=".51" stop-color="#fff"/>
      <stop offset=".58" stop-color="#ececec"/>
      <stop offset=".72" stop-color="#bbb"/>
      <stop offset=".92" stop-color="#6d6c6c"/>
      <stop offset=".96" stop-color="#5f5e5e"/>
    </linearGradient>
    <linearGradient id="Dégradé_sans_nom_11-3" data-name="Dégradé sans nom 11" x1="577.39" y1="481.44" x2="583.66" y2="553.18" gradientTransform="matrix(1,0,0,1,0,0)" xlink:href="#Dégradé_sans_nom_11"/>
    <linearGradient id="Dégradé_sans_nom_2" data-name="Dégradé sans nom 2" x1="516.39" y1="350.95" x2="516.39" y2="601.16" gradientUnits="userSpaceOnUse">
      <stop offset=".02" stop-color="#fafafa"/>
      <stop offset=".47" stop-color="#ebebeb"/>
      <stop offset=".96" stop-color="#666"/>
    </linearGradient>
  </defs>
  <g id="Monogram_name" data-name="Monogram + name">
    <g>
      <rect class="cls-6" width="1275.59" height="1275.59"/>
      <g>
        <path class="cls-12" d="m1011.82,870.16c0,16.52,7.73,24.67,24.88,24.67,15.67,0,24.25-8.36,24.25-22.45s-4.98-20.65-18.11-24.67l-6.88-2.12c-7.84-2.44-10.69-5.3-10.69-12.92,0-6.67,3.39-9.85,10.59-9.85,8.47,0,11.33,3.71,11.54,12.18h12.07c0-15.99-7.84-22.98-23.83-22.98-15.04,0-22.55,8.89-22.55,21.28,0,13.34,5.61,19.48,18.42,23.4l7.31,2.22c7.31,2.22,9.95,5.93,9.95,13.87,0,7.41-3.28,11.22-12.07,11.22-9.32,0-12.71-4.66-12.81-13.87h-12.07Zm-54.64,23.51h41.61v-11.01h-29.54v-24.78h25.1v-10.91h-25.1v-22.77h28.27v-11.01h-40.34v80.48Zm-55.27,0h39.39v-11.01h-27.32v-69.46h-12.07v80.48Zm-34.31,0h12.07v-80.48h-12.07v80.48Zm-41.3-35.79c6.67,0,10.17,4.77,10.17,13.34,0,7.84-3.6,11.97-10.48,11.97h-12.92v-25.31h13.24Zm-1.06-34.2c6.14,0,9.74,4.34,9.74,11.97s-3.18,11.75-9.21,11.75h-12.71v-23.72h12.18Zm-24.14,69.99h25.73c14.29,0,21.92-7.84,21.92-22.02,0-10.06-3.71-16.73-11.22-19.17,6.46-2.96,9.21-9.95,9.21-18.53,0-13.45-7.31-20.75-20.65-20.75h-24.99v80.48Zm-45.96-70.63c9,0,13.87,5.19,13.87,14.82v31.13c0,9.64-4.87,14.82-13.87,14.82s-13.87-5.19-13.87-14.82v-31.13c0-9.64,4.87-14.82,13.87-14.82m0-11.01c-16.31,0-25.94,9.85-25.94,26.26v30.6c0,16.2,9.64,25.94,25.94,25.94s25.94-9.74,25.94-25.94v-30.6c0-16.41-9.64-26.26-25.94-26.26m-108.53,81.64h11.44v-61.31l14.72,38.97h10.38l14.61-38.86v61.2h11.44v-80.48h-14.19l-16.73,45.64-16.84-45.64h-14.82v80.48Zm-45.96-70.63c9,0,13.87,5.19,13.87,14.82v31.13c0,9.64-4.87,14.82-13.87,14.82s-13.87-5.19-13.87-14.82v-31.13c0-9.64,4.87-14.82,13.87-14.82m0-11.01c-16.31,0-25.94,9.85-25.94,26.26v30.6c0,16.2,9.64,25.94,25.94,25.94s25.94-9.74,25.94-25.94v-30.6c0-16.41-9.64-26.26-25.94-26.26m-70.2,81.64h12.07v-69.57h19.8v-10.91h-51.57v10.91h19.7v69.57Zm-35.05-24.04v-56.44h-12.07v57.29c0,9.74-4.34,13.34-12.5,13.34s-12.6-3.6-12.6-13.34v-57.29h-12.07v56.44c0,16.1,8.47,25.2,24.67,25.2s24.57-9.11,24.57-25.2m-102.71-8.68l8.89-37.59,8.79,37.59h-17.68Zm25.31,32.72h12.5l-19.91-80.48h-17.68l-19.7,80.48h11.86l5.19-22.13h22.55l5.19,22.13Zm-139.98-23.51c0,16.52,7.73,24.67,24.88,24.67,15.67,0,24.25-8.36,24.25-22.45s-4.98-20.65-18.11-24.67l-6.88-2.12c-7.84-2.44-10.7-5.3-10.7-12.92,0-6.67,3.39-9.85,10.59-9.85,8.47,0,11.33,3.71,11.54,12.18h12.07c0-15.99-7.84-22.98-23.82-22.98-15.04,0-22.56,8.89-22.56,21.28,0,13.34,5.61,19.48,18.42,23.4l7.31,2.22c7.31,2.22,9.95,5.93,9.95,13.87,0,7.41-3.28,11.22-12.07,11.22-9.32,0-12.71-4.66-12.81-13.87h-12.07Zm-41.82-46.17c9.11,0,14.08,5.19,14.08,14.82v29.23c0,9.64-4.98,14.82-14.08,14.82h-10.91v-58.88h10.91Zm-22.77,69.68h22.98c16.31,0,25.94-9.53,25.94-25.52v-29.12c0-16.2-9.64-25.84-25.94-25.84h-22.98v80.48Z"/>
        <g>
          <g>
            <g>
              <path class="cls-7" d="m801.48,609.05c-1.46-1.38-8.51-7.43-8.51-7.43l-142.98-111.36c24.89,24.38,60.9,63.99,72.41,98.87,3.06,9.27,4.61,18.27,4.61,26.72,0,7.33-1.56,14.63-4.64,22.4-5.67,14.32-17.83,31.04-36.15,49.7-6.37,6.49-33.53,32.82-42.51,41.52h0c-1.89,1.83-3.28,4.45-3.83,7.4-.03.19-.07.38-.1.57-.03.18-.06.37-.08.56-.05.31-.08,4.7-.12,5.04-.02.2-.05.4-.07.61-.04.36-.06.74-.09,1.12-.01.19-.03.37-.04.56-.03.57-.05,1.16-.05,1.76l-.03,2.05,160.38-124.94c1.57-1.15,5.21-4.26,5.21-8.36,0-3.19-2.39-5.82-3.41-6.79Z"/>
              <path class="cls-9" d="m698.28,697.54c-1.01-1.1,30.59-23.42,48.27-61.66,5.01-10.82,7.33-15.18,17.58-16.17,10.93-1.02,23.92-1.95,30.2-2.04,2.55-.04,3.75.33,4.13,1.62.29.99-.65,2.35-2.56,3.7-16.68,11.76-41.17,31.55-74.86,58.41-2.13,1.69-22.23,16.72-22.75,16.15Z"/>
              <path class="cls-10" d="m721.37,502.78c-3.06-9.28-4.62-18.27-4.62-26.72,0-7.33,1.56-14.75,4.64-22.6,5.67-14.45,17.85-31.33,36.19-50.17,5.91-6.06,30.17-29.8,42.51-41.84h0c2.03-1.98,3.35-4.58,3.87-7.68.46-2.76.52-8.08.52-8.97l.03-2.05-160.42,124.94c-1.11.82-3.64,3-4.76,5.87-.44,1.12-.64,3.23,0,4.93.8,2.09,2.3,3.73,2.95,4.35,1.17,1.1,8.07,6.92,8.07,6.92l142.59,111.06c-24.85-24.44-60.2-63.56-71.58-98.05Z"/>
              <path class="cls-12" d="m713.62,500.71c-2.87-8.24-4.25-16.52-4.25-24.66,0-7.41,2.03-14.6,5.12-21.93,13.15-31.11,74.44-84.47,87-94.29.05-.06.08-.13.13-.19-10.97,7.67-56.15,45.8-68.01,57.3-19.21,18.61-33.89,38.56-33.89,59.11,0,22.56,15.67,45.55,33.49,66.48,11.41,13.39,22.04,24.97,32.72,34.77,11.31,10.38,18.95,17.25,27.02,23.53-9.25-8.27-64.6-57.87-79.34-100.11Z"/>
              <path class="cls-4" d="m721.37,502.78c-3.06-9.28-4.62-18.27-4.62-26.72,0-7.33,1.56-14.75,4.64-22.6,5.67-14.45,17.85-31.33,36.19-50.17,5.91-6.06,30.17-29.8,42.51-41.84h0c.52-.5.98-1.04,1.4-1.62-12.56,9.82-73.85,63.17-87,94.29-3.1,7.33-5.12,14.51-5.12,21.93,0,8.14,1.37,16.42,4.25,24.66,14.66,42.02,69.5,91.31,79.18,99.97-24.84-24.45-60.07-63.48-71.43-97.9Z"/>
              <path class="cls-2" d="m730.18,591.21c-14.74-42.24-70.91-92.64-80.15-100.91h0c24.89,24.38,60.88,63.97,72.38,98.83,3.06,9.27,4.61,18.27,4.61,26.72,0,7.33-1.56,14.63-4.64,22.4-5.67,14.32-17.83,31.04-36.15,49.7-6.37,6.49-33.53,32.82-42.51,41.52h0c-.49.48-.95,1.01-1.37,1.59,12.65-9.82,73.82-62.64,86.96-93.46,3.1-7.26,5.12-14.33,5.12-21.74,0-8.13-1.37-16.42-4.24-24.66Z"/>
              <path class="cls-12" d="m710.58,549.39c-11.41-13.39-22.04-24.96-32.72-34.77-11.3-10.38-19.8-17.98-27.83-24.33,9.25,8.27,65.41,58.67,80.15,100.91,2.87,8.24,4.24,16.53,4.24,24.66,0,7.41-2.03,14.48-5.12,21.74-13.14,30.82-74.31,83.64-86.96,93.46-.05.06-.09.13-.13.2,11.03-7.66,56.13-45.4,67.97-56.78,19.21-18.45,33.89-38.05,33.89-58.61,0-22.56-15.67-45.55-33.49-66.48Z"/>
              <path class="cls-12" d="m578.69,476.05c0,22.27-15.36,44.95-35.45,65.6-12.85,13.22-26.05,24.64-38.09,34.31-12.74,10.24-22.44,17.03-31.53,23.22,10.42-8.16,73.7-57.1,90.31-98.79,3.24-8.13,5.12-16.31,5.12-24.33s-1.88-16.2-5.12-24.33c-16.6-41.69-79.89-90.63-90.31-98.79,9.09,6.19,18.79,12.98,31.53,23.21,12.04,9.67,25.23,21.09,38.09,34.31,20.09,20.65,35.45,43.34,35.45,65.6Z"/>
              <path class="cls-8" d="m473.61,599.17c10.42-8.16,73.7-57.1,90.31-98.79,3.24-8.13,5.12-16.31,5.12-24.33s-1.88-16.2-5.12-24.33c-16.6-41.69-79.89-90.63-90.31-98.79,9.62,8.16,68.04,57.1,83.37,98.79,2.99,8.13,4.73,16.31,4.73,24.33s-1.73,16.2-4.73,24.33c-15.33,41.68-73.75,90.63-83.37,98.79Z"/>
              <path class="cls-12" d="m802.49,607.99c-11.79-11.14-65.34-62.08-79.72-105.66-2.9-8.78-4.54-17.6-4.54-26.26,0-7.47,1.64-14.7,4.54-22.08,6.55-16.69,21.09-34.51,35.88-49.69,6.32-6.49,33.58-33.13,42.59-41.92,2.04-1.99,3.5-4.86,3.99-7.36.52-2.65.72-8.24.72-10.17l.08-5.11-162.8,126.8c-1.79,1.32-4.47,3.8-5.44,7.05-.98-3.26-3.67-5.75-5.41-7.07l-162.79-126.8v272.67l162.79-126.8c1.74-1.32,4.44-3.81,5.41-7.08.83,2.75,2.81,4.77,3.49,5.42,11.79,11.14,65.34,62.08,79.72,105.66,2.9,8.78,4.54,17.6,4.54,26.26,0,7.47-1.64,14.58-4.54,21.9-6.54,16.53-21.07,34.18-35.84,49.23-6.32,6.43-33.59,32.88-42.59,41.6-1.99,1.93-3.5,4.79-4,7.3-.41,2.05-.71,8.57-.71,11.19l-.08,5.11,162.75-126.8c2.23-1.63,5.81-5.06,5.81-9.54,0-3.97-3.01-7.03-3.87-7.86Zm-171.02-123.53l-160.41,124.94v-266.59l160.39,124.93c1.95,1.48,5.2,4.53,5.2,8.37s-3.25,6.88-5.19,8.36Zm7.87-5.96c-.65-1.7-.45-3.81,0-4.93,1.12-2.87,3.65-5.06,4.76-5.87l160.42-124.94-.03,2.05c0,.89-.05,6.21-.52,8.97-.52,3.1-1.84,5.69-3.87,7.68-12.33,12.04-36.6,35.77-42.51,41.84-18.34,18.84-30.52,35.71-36.19,50.17-3.08,7.84-4.64,15.27-4.64,22.6,0,8.45,1.55,17.44,4.62,26.72,11.38,34.49,46.73,73.61,71.58,98.05l-142.59-111.06s-6.9-5.82-8.07-6.92c-.65-.62-2.16-2.26-2.95-4.35Zm160.34,145.7l-160.38,124.94.03-2.05c0-2.19.21-8.31.5-10,.52-3.03,1.94-5.74,3.88-7.61,8.99-8.71,36.14-35.04,42.51-41.52,18.32-18.66,30.48-35.38,36.15-49.7,3.08-7.78,4.64-15.08,4.64-22.4,0-8.45-1.55-17.45-4.61-26.72-11.51-34.87-47.52-74.49-72.41-98.87l142.98,111.36s7.05,6.05,8.51,7.43c1.02.98,3.41,3.6,3.41,6.79,0,4.09-3.65,7.21-5.21,8.36Z"/>
              <path class="cls-3" d="m742.72,557.74c.37-.34-16.18-16.59-18.22-18.51-18.32-17.19-33.06-43.49-33.2-43.75-5.52-10.56-7.33-15.18-17.57-16.17-10.94-1.02-17.98-1.33-24.27-1.42-2.55-.03-3.75.33-4.12,1.62-.29.99.64,2.35,2.56,3.7,16.68,11.76,41.17,31.55,74.86,58.4,2.13,1.7,19.4,16.65,19.97,16.13Z"/>
            </g>
            <path class="cls-5" d="m471.08,601.16l2.55-1.98s.05-.04.07-.06c9.07-6.17,18.75-12.95,31.45-23.16,12.04-9.67,25.23-21.09,38.09-34.31,20.09-20.65,35.45-43.33,35.45-65.6s-15.36-44.95-35.45-65.6c-12.85-13.22-26.05-24.63-38.09-34.31-12.74-10.24-22.44-17.03-31.53-23.21l-2.53-1.97v-8.14s160.38,124.93,160.38,124.93c1.95,1.48,5.2,4.53,5.2,8.37s-3.25,6.88-5.19,8.36l-160.41,124.94v-8.24Z"/>
            <path class="cls-11" d="m531.01,557.74c-.17-.13,4.12-4.01,13.71-12.63,2.23-2,4.31-3.96,6.35-5.88,18.32-17.19,33.05-43.49,33.2-43.75,5.52-10.56,7.33-15.18,17.57-16.17,10.93-1.02,17.98-1.33,24.27-1.42,2.55-.03,3.75.33,4.12,1.62.29.99-.65,2.35-2.56,3.7-16.69,11.76-40.82,32.05-74.87,58.4-2.15,1.66-4.29,3.4-6.55,5.07-9.73,7.2-14.63,11.53-15.26,11.06Z"/>
          </g>
          <path class="cls-1" d="m556.99,500.39c-15.33,41.68-73.75,90.63-83.37,98.78l-2.55,1.98v-250.21s2.55,1.98,2.55,1.98c9.62,8.16,68.04,57.1,83.37,98.79,2.99,8.13,4.72,16.31,4.72,24.33s-1.74,16.2-4.72,24.33Z"/>
        </g>
      </g>
    </g>
  </g>
</svg>